<svg width="15" height="15" viewBox="0 0 15 15" fill="none" xmlns="http://www.w3.org/2000/svg">
<path d="M7.5 0.109375C3.48633 0.109375 0.234375 3.39062 0.234375 7.375C0.234375 11.3887 3.48633 14.6406 7.5 14.6406C11.4844 14.6406 14.7656 11.3887 14.7656 7.375C14.7656 3.39062 11.4844 0.109375 7.5 0.109375ZM10.9277 10.2754C10.8691 10.334 9.75586 11.623 7.70508 11.623C5.21484 11.623 3.45703 9.77734 3.45703 7.3457C3.45703 4.97266 5.27344 3.15625 7.67578 3.15625C9.63867 3.15625 10.6641 4.24023 10.6934 4.29883C10.752 4.35742 10.8105 4.44531 10.8105 4.5332C10.8105 4.5918 10.7812 4.67969 10.752 4.73828L10.0781 5.73438C9.96094 5.91016 9.72656 5.96875 9.55078 5.79297C9.55078 5.79297 8.78906 5.11914 7.73438 5.11914C6.38672 5.11914 5.56641 6.08594 5.56641 7.3457C5.56641 8.48828 6.32812 9.66016 7.76367 9.66016C8.87695 9.66016 9.66797 8.83984 9.66797 8.83984C9.81445 8.66406 10.0781 8.69336 10.2246 8.86914L10.9277 9.83594C10.957 9.89453 11.0156 9.98242 11.0156 10.041C11.0156 10.1289 10.957 10.2168 10.9277 10.2754Z" fill="black"/>
</svg>
