<svg width="24" height="25" viewBox="0 0 24 25" fill="none" xmlns="http://www.w3.org/2000/svg">
<path d="M21.6295 0.42857C20.9732 0.42857 20.3571 0.723214 19.8884 1.15178L11.3438 8.90625C10.5536 9.62946 10.1116 10.6741 10.1116 11.7455C10.1116 13.9955 11.9598 15.9241 14.2232 15.9241C15.3616 15.9241 16.3259 15.4687 17.1429 14.7054C18.817 13.1652 22.3259 6.61607 23.3705 4.63393C23.692 4.00446 23.9732 3.32143 23.9732 2.61161C23.9732 1.33928 22.8482 0.42857 21.6295 0.42857ZM9.45536 14.2768C6.44196 14.4107 4.66071 14.9464 3.52232 17.9196C3.40179 18.2277 3.12054 18.4152 2.78571 18.4152C2.22321 18.4152 0.495536 17.0357 0 16.7009C0 20.8125 1.96875 24.4286 6.50893 24.4286C10.3393 24.4286 12.9911 21.8036 12.9107 17.9866L12.8973 17.0357C11.4241 16.6473 10.1518 15.6295 9.45536 14.2768Z" fill="black"/>
</svg>
