<svg width="9" height="16" viewBox="0 0 9 16" fill="none" xmlns="http://www.w3.org/2000/svg">
<path d="M8.17383 9.3125H5.97656V15.875H3.04688V9.3125H0.673828V6.58789H3.04688V4.53711C3.04688 3.75586 3.19336 3.0918 3.48633 2.54492C3.7793 1.99805 4.18945 1.58789 4.7168 1.31445C5.26367 1.02148 5.88867 0.875 6.5918 0.875C6.9043 0.875 7.23633 0.894531 7.58789 0.933594C7.93945 0.953125 8.21289 0.982422 8.4082 1.02148L8.70117 1.05078V3.36523H7.5293C6.98242 3.36523 6.58203 3.51172 6.32812 3.80469C6.09375 4.07812 5.97656 4.41992 5.97656 4.83008V6.58789H8.58398L8.17383 9.3125Z" fill="black"/>
</svg>
