<svg width="14" height="14" viewBox="0 0 14 14" fill="none" xmlns="http://www.w3.org/2000/svg">
<path d="M4.18945 5.00195C4.85352 4.33789 5.6543 4.00586 6.5918 4.00586C7.5293 4.00586 8.32031 4.33789 8.96484 5.00195C9.62891 5.64648 9.96094 6.4375 9.96094 7.375C9.96094 8.3125 9.62891 9.11328 8.96484 9.77734C8.32031 10.4219 7.5293 10.7441 6.5918 10.7441C5.6543 10.7441 4.85352 10.4219 4.18945 9.77734C3.54492 9.11328 3.22266 8.3125 3.22266 7.375C3.22266 6.4375 3.54492 5.64648 4.18945 5.00195ZM5.03906 8.92773C5.46875 9.35742 5.98633 9.57227 6.5918 9.57227C7.19727 9.57227 7.71484 9.35742 8.14453 8.92773C8.57422 8.49805 8.78906 7.98047 8.78906 7.375C8.78906 6.76953 8.57422 6.25195 8.14453 5.82227C7.71484 5.39258 7.19727 5.17773 6.5918 5.17773C5.98633 5.17773 5.46875 5.39258 5.03906 5.82227C4.60938 6.25195 4.39453 6.76953 4.39453 7.375C4.39453 7.98047 4.60938 8.49805 5.03906 8.92773ZM10.6348 3.33203C10.791 3.46875 10.8691 3.64453 10.8691 3.85938C10.8691 4.07422 10.791 4.25977 10.6348 4.41602C10.498 4.57227 10.3223 4.65039 10.1074 4.65039C9.89258 4.65039 9.70703 4.57227 9.55078 4.41602C9.39453 4.25977 9.31641 4.07422 9.31641 3.85938C9.31641 3.64453 9.39453 3.46875 9.55078 3.33203C9.70703 3.17578 9.89258 3.09766 10.1074 3.09766C10.3223 3.09766 10.498 3.17578 10.6348 3.33203ZM13.125 4.67969C13.1445 5.20703 13.1543 6.10547 13.1543 7.375C13.1543 8.64453 13.1445 9.54297 13.125 10.0703C13.0664 11.2617 12.7051 12.1895 12.041 12.8535C11.3965 13.498 10.4785 13.8398 9.28711 13.8789C8.75977 13.918 7.86133 13.9375 6.5918 13.9375C5.32227 13.9375 4.42383 13.918 3.89648 13.8789C2.70508 13.8203 1.78711 13.4688 1.14258 12.8242C0.888672 12.5898 0.683594 12.3164 0.527344 12.0039C0.371094 11.6914 0.253906 11.3887 0.175781 11.0957C0.117188 10.8027 0.0878906 10.4609 0.0878906 10.0703C0.0488281 9.54297 0.0292969 8.64453 0.0292969 7.375C0.0292969 6.10547 0.0488281 5.19727 0.0878906 4.65039C0.146484 3.47852 0.498047 2.57031 1.14258 1.92578C1.78711 1.26172 2.70508 0.900391 3.89648 0.841797C4.42383 0.822266 5.32227 0.8125 6.5918 0.8125C7.86133 0.8125 8.75977 0.822266 9.28711 0.841797C10.4785 0.900391 11.3965 1.26172 12.041 1.92578C12.7051 2.57031 13.0664 3.48828 13.125 4.67969ZM11.7188 11.2422C11.7773 11.0859 11.8262 10.8906 11.8652 10.6562C11.9043 10.4023 11.9336 10.1094 11.9531 9.77734C11.9727 9.42578 11.9824 9.14258 11.9824 8.92773C11.9824 8.71289 11.9824 8.41016 11.9824 8.01953C11.9824 7.62891 11.9824 7.41406 11.9824 7.375C11.9824 7.31641 11.9824 7.10156 11.9824 6.73047C11.9824 6.33984 11.9824 6.03711 11.9824 5.82227C11.9824 5.60742 11.9727 5.33398 11.9531 5.00195C11.9336 4.65039 11.9043 4.35742 11.8652 4.12305C11.8262 3.86914 11.7773 3.66406 11.7188 3.50781C11.4844 2.90234 11.0645 2.48242 10.459 2.24805C10.3027 2.18945 10.0977 2.14062 9.84375 2.10156C9.60938 2.0625 9.31641 2.0332 8.96484 2.01367C8.63281 1.99414 8.35938 1.98438 8.14453 1.98438C7.94922 1.98438 7.64648 1.98438 7.23633 1.98438C6.8457 1.98438 6.63086 1.98438 6.5918 1.98438C6.55273 1.98438 6.33789 1.98438 5.94727 1.98438C5.55664 1.98438 5.25391 1.98438 5.03906 1.98438C4.82422 1.98438 4.54102 1.99414 4.18945 2.01367C3.85742 2.0332 3.56445 2.0625 3.31055 2.10156C3.07617 2.14062 2.88086 2.18945 2.72461 2.24805C2.11914 2.48242 1.69922 2.90234 1.46484 3.50781C1.40625 3.66406 1.35742 3.86914 1.31836 4.12305C1.2793 4.35742 1.25 4.65039 1.23047 5.00195C1.21094 5.33398 1.20117 5.60742 1.20117 5.82227C1.20117 6.01758 1.20117 6.32031 1.20117 6.73047C1.20117 7.12109 1.20117 7.33594 1.20117 7.375C1.20117 7.45312 1.20117 7.63867 1.20117 7.93164C1.20117 8.20508 1.20117 8.43945 1.20117 8.63477C1.20117 8.81055 1.20117 9.04492 1.20117 9.33789C1.2207 9.63086 1.24023 9.88477 1.25977 10.0996C1.2793 10.2949 1.30859 10.5 1.34766 10.7148C1.38672 10.9297 1.42578 11.1055 1.46484 11.2422C1.71875 11.8477 2.13867 12.2676 2.72461 12.502C2.88086 12.5605 3.07617 12.6094 3.31055 12.6484C3.56445 12.6875 3.85742 12.7168 4.18945 12.7363C4.54102 12.7559 4.81445 12.7656 5.00977 12.7656C5.22461 12.7656 5.52734 12.7656 5.91797 12.7656C6.32812 12.7656 6.55273 12.7656 6.5918 12.7656C6.65039 12.7656 6.86523 12.7656 7.23633 12.7656C7.62695 12.7656 7.92969 12.7656 8.14453 12.7656C8.35938 12.7656 8.63281 12.7559 8.96484 12.7363C9.31641 12.7168 9.60938 12.6875 9.84375 12.6484C10.0977 12.6094 10.3027 12.5605 10.459 12.502C11.0645 12.248 11.4844 11.8281 11.7188 11.2422Z" fill="black"/>
</svg>
