<svg width="14" height="12" viewBox="0 0 14 12" fill="none" xmlns="http://www.w3.org/2000/svg">
<path d="M13.125 1.77539L11.1328 11.0918C10.9766 11.7559 10.6152 11.9316 10.0488 11.6191L7.03125 9.39258L5.56641 10.7988C5.37109 10.9941 5.16602 11.0918 4.95117 11.0918L5.18555 8.01562L10.7812 2.97656C10.918 2.83984 10.918 2.76172 10.7812 2.74219C10.6641 2.70313 10.5371 2.73242 10.4004 2.83008L3.48633 7.19531L0.498047 6.25781C0.166016 6.16016 0.00976562 6.01367 0.0292969 5.81836C0.0488281 5.62305 0.253906 5.45703 0.644531 5.32031L12.2754 0.808594C12.5684 0.710938 12.8027 0.75 12.9785 0.925781C13.1543 1.08203 13.2031 1.36523 13.125 1.77539Z" fill="black"/>
</svg>
