<svg width="14" height="14" viewBox="0 0 14 14" fill="none" xmlns="http://www.w3.org/2000/svg">
<path d="M11.1621 2.7168C12.4707 4.02539 13.125 5.55859 13.125 7.31641C13.125 9.11328 12.4805 10.6465 11.1914 11.916C9.90234 13.1855 8.35938 13.8203 6.5625 13.8203C5.44922 13.8203 4.41406 13.5566 3.45703 13.0293L0 13.9375L0.9375 10.5684C0.351562 9.57227 0.0585938 8.48828 0.0585938 7.31641C0.0585938 5.51953 0.693359 3.98633 1.96289 2.7168C3.23242 1.44727 4.76562 0.8125 6.5625 0.8125C8.35938 0.8125 9.89258 1.44727 11.1621 2.7168ZM6.5625 12.7363C8.04688 12.7363 9.32617 12.209 10.4004 11.1543C11.4746 10.0801 12.0117 8.80078 12.0117 7.31641C12.0312 5.87109 11.4844 4.60156 10.3711 3.50781C9.31641 2.45312 8.04688 1.92578 6.5625 1.92578C5.07812 1.92578 3.79883 2.45312 2.72461 3.50781C1.66992 4.5625 1.14258 5.83203 1.14258 7.31641C1.14258 8.35156 1.42578 9.30859 1.99219 10.1875L2.10938 10.3926L1.55273 12.3848L3.60352 11.8574L3.80859 11.9746C4.64844 12.4824 5.56641 12.7363 6.5625 12.7363ZM9.52148 8.66406C9.7168 8.76172 9.82422 8.83008 9.84375 8.86914C9.90234 8.98633 9.86328 9.25 9.72656 9.66016C9.66797 9.81641 9.51172 9.98242 9.25781 10.1582C9.02344 10.3145 8.81836 10.4023 8.64258 10.4219C8.13477 10.5 7.48047 10.3633 6.67969 10.0117C5.72266 9.60156 4.80469 8.78125 3.92578 7.55078C3.47656 6.94531 3.25195 6.38867 3.25195 5.88086C3.25195 5.39258 3.4375 4.93359 3.80859 4.50391C3.94531 4.38672 4.0918 4.32812 4.24805 4.32812C4.4043 4.32812 4.51172 4.32812 4.57031 4.32812C4.74609 4.32812 4.86328 4.41602 4.92188 4.5918C5.25391 5.39258 5.41992 5.79297 5.41992 5.79297C5.47852 5.91016 5.48828 6.00781 5.44922 6.08594C5.37109 6.26172 5.27344 6.41797 5.15625 6.55469C5.03906 6.67188 4.9707 6.74023 4.95117 6.75977C4.93164 6.7793 4.94141 6.84766 4.98047 6.96484C5.25391 7.47266 5.54688 7.85352 5.85938 8.10742C6.19141 8.36133 6.63086 8.625 7.17773 8.89844C7.33398 8.97656 7.45117 8.9668 7.5293 8.86914C7.7832 8.57617 7.95898 8.36133 8.05664 8.22461C8.13477 8.10742 8.25195 8.07812 8.4082 8.13672C8.56445 8.19531 8.93555 8.37109 9.52148 8.66406Z" fill="black"/>
</svg>
